<?xml version="1.0" encoding="UTF-8" standalone="no"?>
<!DOCTYPE svg PUBLIC "-//W3C//DTD SVG 1.1//EN" "http://www.w3.org/Graphics/SVG/1.1/DTD/svg11.dtd">
<svg width="100%" height="100%" viewBox="0 0 3508 2481" version="1.1" xmlns="http://www.w3.org/2000/svg" xmlns:xlink="http://www.w3.org/1999/xlink" xml:space="preserve" xmlns:serif="http://www.serif.com/" style="fill-rule:evenodd;clip-rule:evenodd;stroke-linejoin:round;stroke-miterlimit:2;">
    <g transform="matrix(5.39825,0,0,5.39825,-7524.63,-5641.35)">
        <path d="M1944.11,1265.74C1932.81,1278.85 1916.97,1292.95 1898.12,1300.8C1895.54,1297.57 1892.72,1294.67 1889.64,1292.11C1895.32,1266.58 1894.07,1247.33 1885.62,1234.62C1878.03,1248.09 1869.83,1261.37 1859.36,1271.56C1855.3,1269.28 1848.87,1267.76 1844.88,1265.74C1836.14,1261.32 1830.24,1257.83 1823.89,1262.08C1821.16,1256.2 1815.77,1253.8 1807.78,1254.82C1805.43,1248.03 1799.66,1245.05 1791.72,1244.5C1788.8,1235.64 1782.59,1234.19 1773.75,1238.65C1773.75,1238.65 1778.23,1188.74 1778.72,1183.23C1778.75,1182.91 1778.62,1182.61 1778.37,1182.42C1776.52,1181.01 1774.67,1180.17 1772.82,1179.6C1768.45,1161.2 1756.73,1149.38 1739.55,1142.48C1745.33,1123 1732.36,1109.94 1709.95,1109.94C1695.49,1109.94 1690.94,1112.8 1668.27,1122.22C1663.26,1124.3 1655.84,1127.41 1649.23,1128.55C1638.54,1130.39 1632.13,1123.82 1629.46,1120.78C1628.16,1125.11 1628.12,1129.7 1629.46,1134.56C1599.74,1135 1583.95,1150.22 1580.25,1178.26C1579.59,1183.08 1580.34,1187.19 1582.48,1190.61C1583.11,1190.55 1586.26,1181.28 1586.68,1182.73C1586.68,1183.8 1583.03,1200.64 1581.49,1203.23C1572.73,1217.95 1557.91,1216.94 1547.24,1204.98C1547.24,1204.98 1547.69,1222.76 1553.14,1228.85C1553.36,1229.09 1553.59,1229.31 1553.85,1229.51C1591.47,1258.77 1641.22,1244.02 1660.54,1201.39L1663.49,1238.65C1655.48,1234.68 1648.84,1234.75 1645.48,1244.5C1639,1244.13 1633.52,1248.13 1628.64,1254.82C1621.49,1252.84 1616.43,1255.5 1613.15,1262.08C1607.34,1258.83 1600.87,1259.6 1593.55,1265.68C1588.68,1266.12 1583.32,1268.35 1577.69,1271.56C1568.45,1260.01 1559.32,1247.35 1550.28,1233.78C1544.09,1245.11 1542.33,1264.38 1547.24,1292.11C1544.18,1294.82 1541.43,1297.52 1539.13,1300.23C1525,1295.93 1508.79,1282.22 1493.9,1267.19C1491.61,1290.86 1499.41,1315.26 1516.83,1336.95C1512.06,1354.27 1511.3,1369.53 1517.37,1381.3L1524.33,1377.19C1524.01,1400.69 1529.35,1419.85 1542.44,1433.09C1547.45,1423.27 1553.63,1415.29 1561.47,1409.64C1568.07,1404.89 1576.07,1402.04 1583.26,1398.57C1588.89,1395.85 1594.55,1392.55 1599.03,1389.78C1599.13,1389.71 1599.26,1389.7 1599.38,1389.75C1599.5,1389.79 1599.59,1389.89 1599.62,1390.01C1604.52,1408.1 1608.56,1417.93 1612.41,1425.87C1612.89,1426.86 1613.68,1427.66 1614.66,1428.16C1625.58,1433.68 1637.53,1437.28 1650.32,1439.31C1651.82,1439.55 1653.36,1439.22 1654.64,1438.39C1674.81,1425.32 1695.56,1414.35 1717.19,1406.54C1718.36,1406.12 1719.64,1406.14 1720.8,1406.59C1740.93,1414.43 1761.33,1425.81 1781.83,1438.39C1783.18,1439.22 1784.8,1439.53 1786.37,1439.26C1798.83,1437.1 1810.81,1433.76 1821.97,1428.34C1823.21,1427.73 1824.21,1426.72 1824.81,1425.47C1829.66,1415.14 1833.73,1403.43 1837.16,1390.62C1837.19,1390.52 1837.25,1390.44 1837.34,1390.39C1837.42,1390.35 1837.53,1390.34 1837.62,1390.37C1843.82,1392.44 1848.54,1396.01 1854.04,1398.58C1862.16,1402.36 1869.67,1405.63 1876.16,1410.53C1884.01,1416.44 1890.38,1424.31 1894.55,1433.09C1907.9,1420.91 1911.58,1400.07 1912.99,1377.19C1915.14,1379.32 1917.72,1381.11 1920.92,1382.45C1924.95,1370.37 1924.78,1355.08 1920.92,1336.95C1940.18,1314.19 1944.25,1290.14 1944.11,1265.74Z"/>
    </g>
    <g transform="matrix(3.73991,1.29404,-1.23351,3.51108,-3053.87,-5802.4)">
        <path d="M1937.16,1248.79C1945.36,1267.38 1951.88,1288.17 1954.82,1308.27C1955.16,1310.61 1954.06,1312.9 1952.09,1313.99C1952.06,1313.99 1952.03,1314.01 1952,1314.02C1951,1314.56 1949.81,1314.53 1948.83,1313.93C1947.85,1313.35 1947.21,1312.28 1947.12,1311.08C1947.11,1311.01 1947.11,1310.93 1947.1,1310.86C1947.39,1296.19 1944.09,1282.69 1939.99,1269.47C1940.25,1283.68 1939.89,1297.88 1932.78,1311.87C1932.22,1312.95 1931.01,1313.44 1929.91,1313.03C1926.9,1311.83 1924.26,1309.08 1922.49,1306.08C1921.88,1305.02 1921.84,1303.7 1922.39,1302.61C1931.85,1283.91 1935.72,1266.15 1937.16,1248.79Z" style="fill:rgb(210,171,102);"/>
    </g>
    <g transform="matrix(-3.73991,1.29404,1.23351,3.51108,6558.04,-5802.4)">
        <path d="M1937.16,1248.79C1945.4,1267.47 1951.95,1288.38 1954.87,1308.57C1955.13,1310.44 1954.4,1312.3 1952.97,1313.41C1952.56,1313.72 1952.11,1313.99 1951.6,1314.21C1950.74,1314.62 1949.76,1314.59 1948.91,1314.14C1948.07,1313.7 1947.45,1312.88 1947.23,1311.91C1947.16,1311.58 1947.12,1311.23 1947.1,1310.86C1947.39,1296.19 1944.09,1282.69 1939.99,1269.47C1940.25,1283.96 1939.88,1298.42 1932.36,1312.66C1932.08,1313.2 1931.49,1313.48 1930.92,1313.34C1927.19,1312.35 1923.94,1308.88 1922.02,1305.23C1921.72,1304.64 1921.71,1303.92 1922.02,1303.33C1931.75,1284.37 1935.7,1266.37 1937.16,1248.79Z" style="fill:rgb(210,171,102);"/>
    </g>
    <g transform="matrix(3.68363,3.94613,-3.94613,3.68363,1051.59,-11048.1)">
        <path d="M1906.74,1303.32C1921.29,1319.66 1927.06,1339.59 1929.66,1360.8C1929.68,1360.94 1929.68,1361.09 1929.67,1361.23C1929.55,1362.77 1928.7,1364.02 1927.02,1364.95C1926.21,1365.35 1925.59,1365.39 1925.08,1365.19C1924.72,1365.05 1924.47,1364.72 1924.42,1364.34C1922.37,1345.92 1918.45,1330.69 1912.48,1319C1914.62,1332.92 1914.62,1347.67 1910.76,1363.91C1905.91,1361.85 1901.63,1358.36 1898.04,1353.16C1905.11,1333.42 1908.36,1316.55 1906.74,1303.32Z" style="fill:rgb(210,171,102);"/>
    </g>
    <g transform="matrix(-3.68363,3.94613,3.94613,3.68363,2452.29,-11048.1)">
        <path d="M1906.74,1303.32C1921.32,1319.7 1927.09,1339.67 1929.68,1360.94C1929.65,1362.61 1928.81,1363.96 1927.02,1364.95C1926.3,1365.31 1925.73,1365.38 1925.25,1365.25C1924.8,1365.11 1924.47,1364.72 1924.42,1364.26C1922.36,1345.88 1918.44,1330.67 1912.48,1319C1914.59,1332.74 1914.62,1347.29 1910.91,1363.28C1910.87,1363.44 1910.77,1363.57 1910.62,1363.64C1910.48,1363.71 1910.31,1363.72 1910.16,1363.65C1905.74,1361.64 1901.81,1358.41 1898.45,1353.74C1898.19,1353.38 1898.12,1352.91 1898.27,1352.5C1905.19,1333.05 1908.35,1316.4 1906.74,1303.32Z" style="fill:rgb(210,171,102);"/>
    </g>
    <g transform="matrix(5.39825,0,0,5.39825,-7920.83,-5451.3)">
        <path d="M1960.18,1263.16C1959.58,1262.59 1958.77,1262.28 1957.94,1262.31C1954.45,1262.36 1944.45,1262.16 1938.5,1258.27C1931.95,1253.98 1929.67,1245.75 1929.11,1243.23C1929.01,1242.76 1928.69,1242.36 1928.24,1242.16C1925.13,1240.82 1921.6,1239.64 1917.51,1238.66C1917.48,1238.65 1917.44,1238.65 1917.4,1238.65C1915.1,1239.08 1914.22,1257.71 1905.11,1270.09C1894.24,1284.87 1874.94,1293.79 1874.94,1296.59C1872.89,1321.14 1881.42,1335.81 1901.01,1337.36C1901.01,1337.36 1907.13,1337.23 1913.62,1335.23C1917.68,1333.98 1922.62,1330.94 1927.66,1329.35C1936.05,1326.7 1945.19,1325.56 1954.37,1325.02C1971.12,1324.03 1983.24,1331.15 1986.75,1332.24C1986.92,1332.25 1987.09,1332.18 1987.21,1332.06C1987.33,1331.94 1987.39,1331.77 1987.38,1331.6C1986.94,1324.26 1987.39,1317.39 1986.22,1310.68C1986.22,1310.68 1970.96,1306.11 1965.28,1295.05C1961.01,1286.74 1963.62,1273.62 1964.49,1269.89C1964.66,1269.23 1964.54,1268.53 1964.16,1267.96C1963.02,1266.25 1961.74,1264.63 1960.18,1263.16Z" style="fill:rgb(210,171,102);"/>
    </g>
    <g transform="matrix(-5.39825,0,0,5.39825,11425.4,-5451.3)">
        <path d="M1960.19,1263.17C1959.58,1262.59 1958.76,1262.28 1957.92,1262.31C1954.43,1262.36 1944.45,1262.16 1938.5,1258.27C1931.9,1253.95 1929.63,1245.62 1929.09,1243.17C1929,1242.73 1928.71,1242.37 1928.3,1242.19C1925.18,1240.83 1921.62,1239.64 1917.51,1238.66C1917.48,1238.65 1917.44,1238.65 1917.4,1238.65C1915.1,1239.08 1914.22,1257.71 1905.11,1270.09C1894.24,1284.87 1874.94,1293.79 1874.94,1296.59C1872.89,1321.14 1881.42,1335.81 1901.01,1337.36C1901.01,1337.36 1907.13,1337.23 1913.62,1335.23C1917.68,1333.98 1922.62,1330.94 1927.66,1329.35C1936.05,1326.7 1945.19,1325.56 1954.37,1325.02C1971.48,1324.01 1983.76,1331.46 1986.96,1332.3C1987.08,1332.3 1987.2,1332.26 1987.28,1332.17C1987.36,1332.09 1987.4,1331.97 1987.4,1331.85C1986.93,1324.42 1987.4,1317.47 1986.22,1310.68C1986.22,1310.68 1970.96,1306.11 1965.28,1295.05C1960.96,1286.64 1963.69,1273.29 1964.53,1269.76C1964.67,1269.18 1964.57,1268.58 1964.25,1268.09C1963.09,1266.34 1961.78,1264.68 1960.19,1263.17Z" style="fill:rgb(210,171,102);"/>
    </g>
    <g transform="matrix(2.87397,-2.82821,7.08311,7.19771,-12219.5,-2764.48)">
        <path d="M1885.48,1306.69C1874.63,1308.98 1865.17,1310.13 1856.62,1310.55C1863.68,1316.31 1859.53,1327.84 1848.3,1342.27C1852.39,1342.53 1863.98,1346.88 1878.42,1354.7C1868.66,1342.28 1876.08,1333.14 1900.53,1326.37C1887.72,1321.48 1882.21,1315.03 1885.48,1306.69Z" style="fill:white;"/>
    </g>
    <g transform="matrix(-2.87397,-2.82821,-7.08311,7.19771,15723.5,-2764.48)">
        <path d="M1885.34,1307.06C1885.36,1306.99 1885.29,1306.92 1885.14,1306.88C1885,1306.84 1884.81,1306.83 1884.65,1306.86C1874.71,1308.92 1865.95,1310.02 1857.98,1310.47C1857.66,1310.49 1857.38,1310.57 1857.23,1310.68C1857.07,1310.79 1857.05,1310.92 1857.18,1311.04C1863.34,1316.86 1859.35,1327.87 1848.84,1341.58C1848.56,1341.93 1848.98,1342.32 1849.82,1342.49C1854.77,1343.46 1865.17,1347.57 1877.84,1354.38C1877.89,1354.41 1877.97,1354.42 1878.05,1354.4C1878.12,1354.39 1878.15,1354.36 1878.13,1354.32C1868.93,1342.25 1876.13,1333.31 1899.59,1326.63C1899.82,1326.57 1899.96,1326.46 1899.99,1326.35C1900.01,1326.24 1899.9,1326.13 1899.7,1326.05C1887.67,1321.27 1882.44,1315.04 1885.34,1307.06Z" style="fill:white;"/>
    </g>
    <g transform="matrix(5.43131,0,0,5.5088,-7582.85,-5790.87)">
        <ellipse cx="1829.59" cy="1344.72" rx="8.583" ry="7.7" style="fill:white;"/>
    </g>
    <g transform="matrix(5.43131,0,0,5.5088,-8785.28,-5790.87)">
        <ellipse cx="1829.59" cy="1344.72" rx="8.583" ry="7.7" style="fill:white;"/>
    </g>
    <g transform="matrix(1.61484,-5.15105,5.15105,1.61484,-7647.55,8806.5)">
        <path d="M1827.37,1358.14C1819.8,1349.17 1803.21,1352.07 1804.02,1369.44C1804.9,1388.25 1823.73,1387.78 1829.14,1380.02C1829.14,1380.02 1825.85,1381.2 1822.51,1381.19C1820.65,1381.19 1818.82,1380.37 1817.45,1379.82C1812.31,1377.76 1811.32,1369.69 1811.5,1369.44C1811.5,1369.44 1810.83,1363.33 1815.95,1359.59C1819.89,1356.71 1827.37,1358.14 1827.37,1358.14Z"/>
    </g>
    <g transform="matrix(-1.61484,-5.15105,-5.15105,1.61484,11151,8806.5)">
        <path d="M1827.37,1358.14C1819.8,1349.17 1803.21,1352.07 1804.02,1369.44C1804.9,1388.25 1823.73,1387.78 1829.14,1380.02C1829.14,1380.02 1825.85,1381.2 1822.51,1381.19C1820.65,1381.19 1818.82,1380.37 1817.45,1379.82C1812.31,1377.76 1811.32,1369.69 1811.5,1369.44C1811.5,1369.44 1810.83,1363.33 1815.95,1359.59C1819.89,1356.71 1827.37,1358.14 1827.37,1358.14Z"/>
    </g>
    <g transform="matrix(-0.861691,5.32903,-5.32903,-0.861691,11093.9,-7076.21)">
        <path d="M1862.38,1324.44C1862.47,1324.45 1862.55,1324.41 1862.59,1324.34C1862.64,1324.27 1862.64,1324.18 1862.61,1324.11C1860.2,1319.19 1857.62,1314.75 1854.77,1310.99C1854.57,1310.72 1854.2,1310.63 1853.9,1310.79C1836.86,1319.86 1823.6,1330.03 1817.13,1342.17C1817.03,1342.36 1817.1,1342.6 1817.29,1342.71C1826.07,1347.93 1834.14,1355.03 1841.62,1363.67C1841.8,1363.88 1842.06,1364 1842.34,1363.99C1847.41,1363.95 1852.15,1363.06 1856.67,1361.63C1856.69,1361.62 1856.7,1361.6 1856.7,1361.58C1856.7,1361.56 1856.69,1361.54 1856.67,1361.54C1851.02,1359.54 1844.69,1356.33 1842.16,1351.54C1835.2,1338.41 1840.11,1323.33 1862.38,1324.44Z"/>
    </g>
    <g transform="matrix(0.861691,5.32903,5.32903,-0.861691,-7588.14,-7076.21)">
        <path d="M1862.02,1324.43C1862.18,1324.43 1862.33,1324.36 1862.42,1324.22C1862.5,1324.09 1862.51,1323.92 1862.44,1323.77C1860.19,1319.2 1857.78,1315.05 1855.14,1311.48C1854.73,1310.93 1853.97,1310.76 1853.36,1311.08C1836.63,1320.05 1823.61,1330.1 1817.19,1342.06C1817.06,1342.32 1817.14,1342.63 1817.39,1342.77C1826.12,1347.97 1834.13,1355.03 1841.57,1363.61C1841.78,1363.86 1842.09,1364 1842.42,1363.99C1847.46,1363.94 1852.16,1363.05 1856.66,1361.63C1856.68,1361.63 1856.69,1361.61 1856.69,1361.58C1856.69,1361.56 1856.68,1361.54 1856.66,1361.53C1851.01,1359.54 1844.69,1356.32 1842.16,1351.54C1835.24,1338.48 1840.06,1323.5 1862.02,1324.43Z"/>
    </g>
    <g transform="matrix(-7.9377,0.292285,-0.251325,-6.82531,17931.1,10880.5)">
        <path d="M1873.69,1377.28C1873.75,1377.16 1873.86,1377.08 1873.98,1377.08C1874.1,1377.09 1874.22,1377.16 1874.27,1377.28C1881.48,1391.96 1897.09,1402.44 1911.93,1411.39C1912.07,1411.47 1912.16,1411.64 1912.17,1411.83C1912.17,1412.02 1912.08,1412.19 1911.94,1412.28C1899.06,1420.71 1880.46,1421.71 1865.36,1415.13C1865.13,1415.03 1864.99,1414.76 1865.02,1414.48C1866.79,1396.9 1869.87,1385.11 1873.69,1377.28Z" style="fill:rgb(210,171,102);"/>
    </g>
    <g transform="matrix(7.9377,0.292285,0.251325,-6.82531,-14425.3,10880.5)">
        <path d="M1873.89,1376.87C1873.91,1376.83 1873.95,1376.81 1873.99,1376.81C1874.02,1376.81 1874.06,1376.84 1874.08,1376.87C1881.27,1391.93 1897.29,1402.58 1912.41,1411.68C1912.46,1411.71 1912.49,1411.76 1912.49,1411.82C1912.49,1411.88 1912.46,1411.94 1912.42,1411.97C1899.52,1420.68 1880.67,1421.79 1865.39,1415.15C1865.14,1415.04 1864.99,1414.75 1865.02,1414.44C1866.83,1396.58 1869.98,1384.7 1873.89,1376.87Z" style="fill:rgb(210,171,102);"/>
    </g>
    <g transform="matrix(5.39825,0,0,5.39825,-7524.63,-5641.35)">
        <path d="M1824.68,1382.05C1824.04,1381.96 1823.42,1382.31 1823.17,1382.9C1819.03,1392.68 1815.63,1402.56 1812.94,1412.52C1812.56,1413.92 1811.56,1415.07 1810.22,1415.62C1803.59,1418.34 1797.15,1420.42 1790.97,1421.67C1789.7,1421.91 1788.38,1421.61 1787.34,1420.84C1770.09,1407.99 1751.4,1397.21 1730.41,1389.75C1727.39,1387.15 1726.83,1376.94 1728.61,1362.95C1729.04,1359.54 1730.32,1356.49 1730.91,1352.59C1721.67,1358.76 1719.6,1377.73 1720.45,1401C1733.31,1402.84 1754.43,1414.04 1779.96,1430.24C1781.05,1430.94 1782.36,1431.2 1783.64,1430.99C1796.04,1428.88 1807.84,1425.88 1818.8,1421.62C1819.84,1421.21 1820.64,1420.36 1820.98,1419.29C1824.49,1408.2 1827.55,1397.3 1829.79,1386.76C1830.01,1385.68 1829.61,1384.56 1828.75,1383.87C1827.48,1382.85 1826.12,1382.27 1824.68,1382.05Z" style="fill:rgb(162,130,79);"/>
    </g>
    <g transform="matrix(-5.39825,0,0,5.39825,11029.7,-5641.35)">
        <path d="M1824.19,1381.99C1823.82,1381.96 1823.48,1382.17 1823.33,1382.51C1819.17,1392.3 1815.75,1402.19 1813.03,1412.16C1812.59,1413.79 1811.42,1415.13 1809.86,1415.77C1803.61,1418.31 1797.55,1420.28 1791.7,1421.52C1789.98,1421.87 1788.19,1421.46 1786.78,1420.42C1769.68,1407.76 1751.17,1397.13 1730.41,1389.75C1727.39,1387.15 1726.83,1376.94 1728.61,1362.95C1729.04,1359.54 1730.32,1356.49 1730.91,1352.59C1721.67,1358.76 1719.6,1377.73 1720.45,1401C1733.16,1402.82 1753.96,1413.8 1779.12,1429.71C1780.76,1430.75 1782.74,1431.14 1784.66,1430.81C1796.4,1428.76 1807.61,1425.9 1818.05,1421.91C1819.56,1421.32 1820.73,1420.08 1821.22,1418.53C1824.69,1407.5 1827.71,1396.65 1829.91,1386.16C1830.04,1385.53 1829.84,1384.88 1829.38,1384.43C1827.79,1382.91 1826.05,1382.17 1824.19,1381.99Z" style="fill:rgb(162,130,79);"/>
    </g>
    <g transform="matrix(5.39825,0,0,5.39825,-7571.05,-5692.62)">
        <path d="M1802.66,1344.35C1794.75,1348.32 1785.75,1351.95 1774.63,1354.44C1767.09,1356.13 1758.12,1356.86 1749.58,1358.52C1746.16,1359.19 1743.09,1361.47 1739.54,1362.09C1733.62,1382.75 1734.45,1393.55 1738.36,1398.53C1759.36,1401.13 1779.02,1409.1 1796.9,1423.17C1797.69,1423.8 1798.77,1423.93 1799.68,1423.51C1803.98,1421.53 1808.35,1419.62 1813.6,1418.59C1814.6,1418.4 1815.4,1417.65 1815.65,1416.67C1818.19,1406.88 1821.42,1397.24 1826.22,1387.94C1809.59,1379.82 1802.03,1365.07 1802.66,1344.35Z" style="fill:rgb(210,171,102);"/>
    </g>
    <g transform="matrix(-5.39825,0,0,5.39825,11076.3,-5692.62)">
        <path d="M1802.66,1344.35C1794.75,1348.32 1785.75,1351.95 1774.63,1354.44C1767.09,1356.13 1758.12,1356.86 1749.58,1358.52C1746.16,1359.19 1743.09,1361.47 1739.54,1362.09C1733.84,1382.54 1734.46,1393.5 1738.37,1398.52C1759.11,1401.09 1778.53,1408.9 1796.22,1422.64C1797.43,1423.59 1799.06,1423.78 1800.46,1423.15C1804.29,1421.41 1808.22,1419.75 1812.8,1418.76C1814.3,1418.44 1815.49,1417.3 1815.88,1415.82C1818.38,1406.32 1821.56,1396.97 1826.22,1387.94C1809.59,1379.82 1802.03,1365.07 1802.66,1344.35Z" style="fill:rgb(210,171,102);"/>
    </g>
    <g transform="matrix(5.39825,0,0,5.39825,-7603.05,-5718.34)">
        <path d="M1804.32,1359.01C1804.31,1358.65 1804.12,1358.31 1803.82,1358.12C1803.52,1357.92 1803.13,1357.88 1802.8,1358.01C1789.71,1363.1 1771.95,1366.11 1752.55,1368.39C1750.67,1368.61 1749.01,1369.7 1748.05,1371.33C1745.84,1375.07 1745,1379.25 1745.67,1383.9C1747.69,1379.87 1751.17,1376.26 1756.39,1374.82C1763.93,1372.75 1774.46,1373.88 1783.92,1373.61C1792.08,1373.38 1797.49,1371.38 1805.79,1371.35C1806.15,1371.35 1806.49,1371.16 1806.68,1370.86C1806.87,1370.56 1806.9,1370.18 1806.75,1369.85C1805.29,1366.56 1804.46,1362.95 1804.32,1359.01Z" style="fill:white;"/>
    </g>
    <g transform="matrix(-5.39825,0,0,5.39825,11108.3,-5718.34)">
        <path d="M1804.31,1358.81C1804.31,1358.49 1804.14,1358.2 1803.88,1358.03C1803.61,1357.85 1803.28,1357.82 1802.99,1357.94C1789.73,1363.13 1771.62,1366.17 1751.86,1368.48C1750.5,1368.63 1749.27,1369.39 1748.53,1370.54C1745.97,1374.49 1744.95,1378.92 1745.67,1383.9C1747.69,1379.87 1751.17,1376.26 1756.39,1374.82C1763.93,1372.75 1774.46,1373.88 1783.92,1373.61C1791.97,1373.39 1797.33,1371.44 1805.44,1371.35C1805.88,1371.35 1806.28,1371.12 1806.52,1370.75C1806.75,1370.39 1806.79,1369.93 1806.61,1369.53C1805.21,1366.27 1804.43,1362.71 1804.31,1358.81Z" style="fill:white;"/>
    </g>
    <g transform="matrix(5.39825,0,0,5.39825,-7719.77,-5386.47)">
        <path d="M1875.09,1227.4C1875.26,1225.81 1874.68,1224.23 1873.53,1223.12C1871,1220.67 1867.62,1220.2 1863.46,1221.55C1862.74,1221.79 1862.28,1222.49 1862.34,1223.24C1863.03,1231.35 1860.27,1239.01 1856.55,1246.53C1860.83,1226.9 1856.81,1219.12 1850.08,1215.19C1850.99,1218.33 1850.86,1221.53 1851.12,1224.41C1852.71,1241.85 1843.66,1254.73 1830.56,1266.53C1833.6,1262.52 1836.98,1259.1 1839.24,1255.27C1845.02,1245.49 1846.92,1236.02 1846.11,1227.59C1845.23,1218.41 1840.95,1210.43 1830.19,1203.68C1831.32,1224.33 1822.69,1241.61 1807.46,1256.59C1810.94,1251.75 1813.71,1249.4 1816.22,1244.89C1826.22,1226.91 1828.29,1209.66 1818.77,1197.82C1817.5,1196.22 1815.56,1195.29 1813.51,1195.29C1812.31,1195.27 1810.97,1195.27 1809.95,1195.27C1809.54,1195.27 1809.15,1195.45 1808.88,1195.77C1808.62,1196.08 1808.51,1196.5 1808.59,1196.9C1809.58,1202.41 1810.37,1207.19 1810.71,1212.34C1812.26,1235.84 1802.62,1257.54 1786.45,1278.05C1807.8,1267.96 1825.69,1254.88 1835.02,1234.44C1828.57,1257.48 1813.33,1275.33 1793.86,1290.69C1844.55,1285.72 1871.11,1264.27 1875.09,1227.4Z" style="fill:rgb(238,30,36);"/>
    </g>
    <g transform="matrix(-5.39825,0,0,5.39825,11224.2,-5386.47)">
        <path d="M1875.15,1226.86C1875.25,1225.8 1874.93,1224.74 1874.25,1223.91C1871.89,1221.05 1868.66,1220.21 1864.64,1221.21C1863.27,1221.54 1862.34,1222.8 1862.42,1224.2C1862.81,1231.96 1860.12,1239.3 1856.55,1246.53C1860.83,1226.9 1856.81,1219.12 1850.08,1215.19C1850.99,1218.33 1850.86,1221.53 1851.12,1224.41C1852.71,1241.85 1843.66,1254.73 1830.56,1266.53C1833.6,1262.52 1836.98,1259.1 1839.24,1255.27C1845.02,1245.49 1846.92,1236.02 1846.11,1227.59C1845.23,1218.41 1840.95,1210.43 1830.19,1203.68C1831.32,1224.33 1822.69,1241.61 1807.46,1256.59C1810.94,1251.75 1813.71,1249.4 1816.22,1244.89C1826.6,1226.22 1828.43,1208.34 1817.62,1196.48C1816.92,1195.71 1815.93,1195.28 1814.9,1195.28C1813.24,1195.27 1810.66,1195.27 1809.26,1195.27C1809.02,1195.27 1808.79,1195.38 1808.64,1195.57C1808.48,1195.75 1808.42,1195.99 1808.46,1196.23C1809.52,1202.03 1810.35,1206.98 1810.71,1212.34C1812.26,1235.84 1802.62,1257.54 1786.45,1278.05C1807.8,1267.96 1825.69,1254.88 1835.02,1234.44C1828.57,1257.48 1813.33,1275.33 1793.86,1290.69C1844.8,1285.7 1871.37,1264.06 1875.15,1226.86Z" style="fill:rgb(238,30,36);"/>
    </g>
    <g transform="matrix(5.39825,0,0,5.39825,-7524.63,-5641.35)">
        <path d="M1717.88,1222.06C1719.1,1222.26 1720.36,1222.27 1721.59,1222.1C1736.79,1219.95 1749.86,1215.85 1761.78,1209.44C1761.86,1209.4 1761.95,1209.41 1762.02,1209.45C1762.09,1209.5 1762.13,1209.59 1762.12,1209.67C1760.7,1226.58 1750.27,1235.89 1730.08,1236.99C1729.44,1237.02 1728.94,1237.55 1728.94,1238.19C1728.93,1247.79 1728.93,1314.48 1728.93,1323.46C1728.93,1323.59 1729.02,1323.7 1729.15,1323.74C1729.28,1323.78 1729.41,1323.73 1729.48,1323.62C1743.12,1302.78 1755.66,1281.76 1766.34,1260.43C1766.65,1259.82 1766.82,1259.15 1766.84,1258.47C1767.54,1235.39 1768.53,1212.18 1770.19,1188.63C1770.27,1187.43 1769.51,1186.33 1768.35,1185.99C1744.32,1178.84 1727.52,1164.68 1719.14,1142.36C1719.12,1142.3 1719.06,1142.25 1718.99,1142.25C1718.92,1142.25 1718.86,1142.29 1718.83,1142.35C1708.86,1164.32 1692.44,1179.37 1668.42,1186.28C1667.85,1186.45 1667.47,1186.99 1667.51,1187.58C1668.94,1210.83 1669.82,1234.35 1670.28,1258.09C1670.3,1259.02 1670.51,1259.94 1670.91,1260.79C1680.89,1281.99 1693.47,1302.87 1707.34,1323.59C1707.42,1323.7 1707.57,1323.75 1707.7,1323.71C1707.83,1323.67 1707.92,1323.55 1707.92,1323.41C1707.92,1314.23 1707.92,1247.54 1707.92,1238.14C1707.92,1237.52 1707.45,1237.01 1706.83,1236.96C1686.45,1235.34 1676.13,1226.18 1675.47,1209.76C1675.47,1209.65 1675.52,1209.55 1675.61,1209.49C1675.7,1209.43 1675.82,1209.42 1675.92,1209.47C1688.09,1215.4 1702.54,1219.55 1717.88,1222.06Z" style="fill:rgb(210,171,102);"/>
    </g>
    <g transform="matrix(5.39825,0,0,5.39825,-7540.68,-5594.9)">
        <path d="M1707.41,1234.93C1707.42,1234.03 1706.71,1233.28 1705.81,1233.26C1699.09,1233.07 1693.68,1231.14 1689.36,1227.75C1689.18,1227.61 1688.93,1227.58 1688.72,1227.68C1688.51,1227.78 1688.38,1227.99 1688.37,1228.22C1688.27,1242.64 1688.7,1256.74 1689.53,1270.6C1689.6,1271.85 1689.96,1273.07 1690.57,1274.17C1695.22,1282.55 1700.3,1290.62 1705.63,1298.5C1705.75,1298.67 1705.96,1298.74 1706.15,1298.68C1706.35,1298.62 1706.49,1298.44 1706.49,1298.24C1706.62,1289.42 1707.27,1244.17 1707.41,1234.93Z"/>
    </g>
    <g transform="matrix(5.39825,0,0,5.39825,-7524.63,-5641.35)">
        <path d="M1746.92,1240.67C1746.92,1240.45 1746.82,1240.25 1746.64,1240.12C1746.46,1240 1746.24,1239.97 1746.03,1240.05C1741.73,1241.67 1738.05,1242.66 1735.13,1242.9C1734.44,1242.94 1733.9,1243.51 1733.9,1244.2C1733.9,1252.61 1733.9,1301.13 1733.9,1306.06C1733.9,1306.12 1733.93,1306.16 1733.99,1306.18C1734.04,1306.2 1734.1,1306.18 1734.13,1306.13C1738.96,1299.25 1743.19,1292.12 1746.92,1284.8L1746.92,1240.67Z" style="fill:white;"/>
    </g>
    <g transform="matrix(5.39825,0,0,5.39825,-7524.63,-5641.35)">
        <path d="M1761.09,1227.34C1761.09,1227.22 1761.01,1227.11 1760.89,1227.07C1760.78,1227.03 1760.65,1227.06 1760.57,1227.15C1757.41,1230.72 1753.87,1233.95 1749.82,1236.71C1748.69,1237.47 1748.02,1238.74 1748.02,1240.1C1748.01,1248.39 1748.01,1277.51 1748.01,1282.2C1748.01,1282.29 1748.06,1282.36 1748.14,1282.38C1748.22,1282.4 1748.3,1282.37 1748.34,1282.3C1752.49,1275.51 1756.32,1268.4 1759.71,1260.86C1760.03,1260.13 1760.23,1259.35 1760.27,1258.55C1760.91,1247.96 1761.23,1237.54 1761.09,1227.34Z"/>
    </g>
    <g transform="matrix(5.39825,0,0,5.39825,-7524.63,-5641.35)">
        <path d="M1746.92,1184.92C1746.92,1184.09 1746.5,1183.3 1745.8,1182.84C1736.2,1176.47 1728.79,1168.17 1722.63,1158.77C1722.57,1158.69 1722.48,1158.66 1722.39,1158.68C1722.3,1158.71 1722.23,1158.79 1722.23,1158.89C1721.81,1177.77 1721.97,1196.49 1723.04,1214.95C1723.06,1215.19 1723.18,1215.42 1723.38,1215.57C1723.58,1215.72 1723.84,1215.76 1724.08,1215.7C1731.25,1213.8 1738.5,1211.9 1745.86,1210C1746.49,1209.83 1746.92,1209.27 1746.92,1208.63C1746.92,1204.45 1746.92,1189.52 1746.92,1184.92Z" style="fill:white;"/>
    </g>
    <g transform="matrix(5.39825,0,0,5.39825,-7524.63,-5641.35)">
        <path d="M1764.02,1191.77C1764.09,1191.17 1763.71,1190.62 1763.14,1190.46C1760.08,1189.67 1756.45,1189.15 1753.89,1187.74C1753.67,1187.6 1753.39,1187.59 1753.15,1187.7C1752.91,1187.82 1752.75,1188.05 1752.73,1188.31C1752.03,1194.85 1752.09,1200 1751.99,1206.39C1751.99,1206.67 1752.13,1206.94 1752.37,1207.09C1752.6,1207.24 1752.9,1207.25 1753.15,1207.13C1755.72,1205.91 1758.55,1205.49 1761.57,1205.72C1762.15,1205.76 1762.66,1205.34 1762.73,1204.77C1763.22,1200.58 1763.56,1196.25 1764.02,1191.77Z"/>
    </g>
    <g transform="matrix(5.39825,0,0,5.39825,-7524.63,-5641.35)">
        <path d="M1717.93,1153.52C1717.93,1153.42 1717.87,1153.34 1717.78,1153.32C1717.69,1153.29 1717.59,1153.32 1717.54,1153.4C1709.04,1166.36 1698.3,1176.84 1684.84,1184.32C1684.14,1184.7 1683.74,1185.47 1683.82,1186.26C1684.56,1193.57 1684.86,1200.99 1684.67,1208.53C1684.65,1209.15 1685.04,1209.72 1685.62,1209.95C1695.86,1213.85 1706.38,1216.34 1717.12,1217.69C1717.33,1217.72 1717.53,1217.66 1717.69,1217.52C1717.84,1217.38 1717.93,1217.18 1717.93,1216.98C1717.93,1209.97 1717.93,1160.11 1717.93,1153.52Z"/>
    </g>
    <g transform="matrix(5.39825,0,0,5.39825,-7524.63,-5641.35)">
        <path d="M1765.43,1181.95C1761.64,1159.62 1745.37,1147.85 1724.66,1144.65C1724.58,1144.64 1724.49,1144.67 1724.44,1144.74C1724.38,1144.8 1724.37,1144.89 1724.4,1144.97C1729.73,1157.97 1738.84,1168.35 1750.01,1173.79C1749.52,1166.67 1744.56,1159.07 1736.09,1151.1C1750.31,1157.95 1758.39,1167.98 1760.94,1179.95L1765.43,1181.95Z" style="fill:rgb(210,171,102);"/>
    </g>
    <g transform="matrix(-5.25824,0,0,5.39825,10779.2,-5641.35)">
        <path d="M1765.43,1181.95C1761.63,1159.59 1745.32,1147.81 1724.56,1144.63C1724.5,1144.62 1724.43,1144.65 1724.39,1144.7C1724.35,1144.75 1724.34,1144.82 1724.36,1144.87C1729.69,1157.92 1738.81,1168.34 1750.01,1173.79C1749.53,1166.74 1744.65,1159.23 1736.35,1151.34C1736.33,1151.33 1736.32,1151.3 1736.34,1151.27C1736.35,1151.25 1736.38,1151.25 1736.41,1151.26C1750.43,1158.1 1758.41,1168.07 1760.94,1179.95L1765.43,1181.95Z" style="fill:rgb(210,171,102);"/>
    </g>
    <g transform="matrix(5.39825,0,0,5.39825,-7524.63,-5641.35)">
        <path d="M1735.28,1150.62C1735.24,1150.57 1735.24,1150.5 1735.27,1150.45C1735.31,1150.41 1735.37,1150.38 1735.42,1150.4C1747.38,1154.51 1756.95,1164.07 1761.91,1180.13L1750.37,1174.34C1747.32,1166.93 1741.89,1158.46 1735.28,1150.62Z" style="fill:white;"/>
    </g>
    <g transform="matrix(5.39825,0,0,5.39825,-7524.63,-5641.35)">
        <path d="M1636.86,1134.25C1639.78,1140.1 1645.28,1143.53 1656.31,1141.81C1656.32,1141.81 1656.32,1141.81 1656.32,1141.81C1656.32,1141.8 1656.32,1141.8 1656.32,1141.8C1652.65,1142.33 1651.34,1145.42 1647.77,1144.84C1633.58,1143.22 1624.27,1140.83 1614.96,1143.29C1598.77,1147.57 1587.39,1160.79 1585.01,1177.22C1589.15,1172.09 1593.84,1168.46 1602.55,1169.49C1599.11,1170.54 1596.19,1171.06 1594.61,1175.44C1590.38,1187.11 1588.67,1201.55 1583,1210.13C1577.21,1218.9 1567.4,1221.67 1556.91,1220.17C1557.44,1222 1558.53,1226.92 1561.81,1228.68C1575.47,1236 1592.27,1233.51 1600.26,1220.17C1603.47,1214.81 1603.09,1205.59 1604.11,1197.61C1604.99,1190.74 1607.25,1185.07 1609.68,1180.13C1614.66,1170.04 1622.68,1168.6 1629.53,1165.76C1635.96,1162.08 1607.46,1161.22 1613.7,1161.16C1616.13,1158.79 1621.46,1156.75 1627.14,1156.08C1632,1155.5 1636.88,1156.21 1643.09,1155.41C1649.55,1154.59 1654.25,1152.15 1659.74,1148.38C1668.93,1142.05 1672.95,1133.55 1681.88,1129.1C1696.89,1121.62 1714.08,1118.95 1724.15,1124.91C1728.05,1127.23 1729.33,1131.47 1731.32,1136.29C1731.57,1136.9 1731.82,1138 1732.37,1138.59C1732.63,1138.84 1733.01,1138.93 1733.36,1138.82C1733.71,1138.72 1733.97,1138.43 1734.04,1138.07C1735.4,1131.16 1734.49,1125.26 1730.4,1121.4C1724.44,1115.77 1712.75,1114.03 1700.35,1115.88C1687.41,1117.82 1675.41,1127.12 1656.55,1133.04C1649.32,1135.31 1643.68,1134.25 1636.86,1134.25Z" style="fill:rgb(238,30,36);"/>
    </g>
</svg>
