<?xml version='1.0' encoding='utf-8'?>
<svg xmlns="http://www.w3.org/2000/svg" width="297.01mm" height="209.97mm" clip-rule="evenodd" fill-rule="evenodd" image-rendering="optimizeQuality" shape-rendering="geometricPrecision" text-rendering="geometricPrecision" version="1.1" viewBox="0 0 2970107 2100075">
 <defs>
  <style type="text/css">
    .fil1 {fill:#00DDFF}
    .fil0 {fill:#FC00FC}
    .fil2 {fill:#FCFC00}
    .fil3 {fill:white;fill-rule:nonzero}
  </style>
 </defs>
   <polygon class="fil0" points="1.9546e6 1.0431e6 2.8699e6 1.0431e6 2.8699e6 1.2781e5 1.9546e6 1.2781e5"/>
   <polygon class="fil1" points="1.2395e5 1.0431e6 1.0393e6 1.0431e6 1.0393e6 1.2781e5 1.2395e5 1.2781e5"/>
   <polygon class="fil2" points="1.0393e6 1.0431e6 1.9546e6 1.0431e6 1.9546e6 1.2781e5 1.0393e6 1.2781e5"/>
  <path class="fil3" d="m9.1114e5 6.5624e5c0 23078-8233 42849-24622 59240-16464 16389-36308 24548-59607 24548h-5.6263e5c-3822 0-7202-1396-9995-4190-2793-2793-4189-6174-4189-9996 0-9040 4703-13596 14184-13596h5.6263e5c15507 0 28811-5513 39835-16464 11099-11024 16611-24181 16611-39542 0-15508-5512-28811-16611-39836-11024-11098-24328-16610-39835-16610h-4.9244e5c-23225 0-43144-8306-59606-24843-16538-16537-24769-36382-24769-59533 0-23299 8231-43217 24769-59754 16462-16537 36381-24769 59606-24769h5.627e5c9334 0 13965 4557 13965 13744 0 3896-1397 7203-4116 9922-2720 2719-6028 4116-9923 4116h-5.6299e5c-15509 0-28738 5587-39762 16758-10952 11098-16464 24475-16464 39983 0 15434 5512 28738 16464 39836 11024 11171 24253 16758 39762 16758h4.928e5c23225 0 43143 8231 59533 24694 16463 16391 24696 36235 24696 59534z"/>
  <path class="fil3" d="m1.8475e6 7.2584e5c0 9481-4630 14186-13817 14186h-6.531e5c-3822 0-7202-1396-9995-4190-2793-2793-4189-6174-4189-10069v-2.8106e5c0-9187 4703-13818 14184-13818h6.531e5c9187 0 13817 4557 13817 13744 0 9334-4630 14038-13817 14038h-6.3951e5v1.1334e5h6.3951e5c9187 0 13817 4630 13817 13964 0 9187-4630 13818-13817 13818h-6.3951e5v1.1245e5h6.3951e5c9187 0 13817 4556 13817 13596z"/>
  <path class="fil3" d="m2.7716e6 5.8546e5c0 42556-15068 78937-45275 1.0922e5 -30208 30208-66515 45349-1.09e5 45349h-4.1027e5c-42481 0-78790-15141-1.09e5 -45349-30208-30281-45274-66662-45274-1.0922e5 0-42555 15066-78937 45274-1.0922e5 30207-30207 66516-45348 1.09e5 -45348h4.1027e5c42483 0 78790 15141 1.09e5 45348 30207 30281 45275 66663 45275 1.0922e5zm-27782 0c0-34911-12348-64825-37044-89593-24695-24769-54462-37191-89153-37191h-4.1078e5c-34764 0-64531 12422-89227 37191-24695 24768-37042 54682-37042 89593 0 34912 12347 64825 37042 89594 24696 24769 54463 37191 89227 37191h4.1078e5c34691 0 64458-12422 89153-37191 24696-24769 37044-54682 37044-89594z"/>
</svg>